{"accessors" : [{"bufferView" : 0, "byteOffset" : 0, "componentType" : 5123, "count" : 7848, "type" : "SCALAR", "max" : [7847], "min" : [0]}, {"bufferView" : 1, "byteOffset" : 0, "componentType" : 5126, "count" : 7848, "type" : "VEC3", "max" : [0.3400000035762787, 0.6299999952316284, 0.07000000029802322], "min" : [-0.3400000035762787, 0, -0.07999999821186066]}, {"bufferView" : 1, "byteOffset" : 12, "componentType" : 5126, "count" : 7848, "type" : "VEC3", "max" : [1.0000044107437134, 1.0000044107437134, 1.0000044107437134], "min" : [-1.0000044107437134, -1.0000044107437134, -1.0000044107437134]}, {"bufferView" : 1, "byteOffset" : 24, "componentType" : 5126, "count" : 7848, "type" : "VEC2", "max" : [0.9707030057907104, 0.5], "min" : [0.03320309892296791, 0.5]}], "asset" : {"generator" : "Aspose.3D 20.9.1", "version" : "2.0"}, "buffers" : [{"uri" : "buffer.bin", "byteLength" : 268452}], "bufferViews" : [{"buffer" : 0, "byteOffset" : 0, "byteLength" : 15696, "target" : 34963}, {"buffer" : 0, "byteOffset" : 15700, "byteLength" : 251136, "byteStride" : 32, "target" : 34962}, {"buffer" : 0, "byteOffset" : 266840, "byteLength" : 1608}], "images" : [{"mimeType" : "image/png", "bufferView" : 2}], "materials" : [{"pbrMetallicRoughness" : {"baseColorFactor" : [1, 1, 1, 1], "baseColorTexture" : {"index" : 0, "texCoord" : 0}, "metallicFactor" : 0.4000000059604645, "roughnessFactor" : 0.30151134729385376}, "emissiveFactor" : [0, 0, 0], "alphaMode" : "OPAQUE", "doubleSided" : false}], "meshes" : [{"primitives" : [{"attributes" : {"POSITION" : 1, "NORMAL" : 2, "TEXCOORD_0" : 3}, "indices" : 0, "material" : 0, "mode" : 4}]}], "nodes" : [{"mesh" : 0, "name" : "unamed_primitive"}, {"children" : [0], "name" : "RootNode"}, {"children" : [1], "matrix" : [1, 0, 0, 0, 0, 1, 0, 0, 0, 0, 1, 0, -0.011927381157875061, 0.000647161970846355, 0.09174907207489014, 1], "name" : "unamed_primitive_Skeleton"}], "samplers" : [{"magFilter" : 9729, "minFilter" : 9986, "wrapS" : 10497, "wrapT" : 10497}], "scene" : 0, "scenes" : [{"nodes" : [2]}], "textures" : [{"sampler" : 0, "source" : 0}]}